<svg width="230" height="128" viewBox="0 0 230 128" fill="none" xmlns="http://www.w3.org/2000/svg">
<path d="M230 0H0V128H230V0Z" fill="white"/>
<path d="M115 117.08C144.321 117.08 168.09 93.3153 168.09 64C168.09 34.6847 144.321 10.92 115 10.92C85.6792 10.92 61.91 34.6847 61.91 64C61.91 93.3153 85.6792 117.08 115 117.08Z" fill="#F2F4F8"/>
<path d="M205.2 23.11H24.81C12.4278 23.11 2.39001 33.1478 2.39001 45.53C2.39001 57.9122 12.4278 67.95 24.81 67.95H205.2C217.582 67.95 227.62 57.9122 227.62 45.53C227.62 33.1478 217.582 23.11 205.2 23.11Z" fill="white"/>
<path d="M156.87 50.87L151.07 45.07L156.87 39.26" stroke="#4A25AA" stroke-width="0.75" stroke-linecap="round" stroke-linejoin="round"/>
<path d="M175.15 30.84V59.41" stroke="#4A25AA" stroke-width="0.75" stroke-linecap="round" stroke-linejoin="round"/>
<path d="M197.02 48.21C199.986 48.21 202.39 45.8058 202.39 42.84C202.39 39.8742 199.986 37.47 197.02 37.47C194.054 37.47 191.65 39.8742 191.65 42.84C191.65 45.8058 194.054 48.21 197.02 48.21Z" stroke="#4A25AA" stroke-width="0.75" stroke-linecap="round" stroke-linejoin="round"/>
<path d="M200.83 46.62L206.88 52.67" stroke="#4A25AA" stroke-width="0.75" stroke-linecap="round" stroke-linejoin="round"/>
<path d="M205.2 23.11H24.81C12.4278 23.11 2.39001 33.1478 2.39001 45.53C2.39001 57.9122 12.4278 67.95 24.81 67.95H205.2C217.582 67.95 227.62 57.9122 227.62 45.53C227.62 33.1478 217.582 23.11 205.2 23.11Z" stroke="#4A25AA" stroke-width="0.75" stroke-linecap="round" stroke-linejoin="round"/>
<path d="M213.09 81.91H180.96C173.95 81.91 168.27 87.61 168.27 94.65C168.27 101.69 173.95 107.39 180.96 107.39H213.09C214.04 107.39 214.97 107.28 215.86 107.08L218.13 108.59C219.16 109.27 220.43 108.67 220.54 107.44L220.79 104.77C223.82 102.44 225.78 98.77 225.78 94.64C225.78 87.61 220.1 81.9 213.09 81.9V81.91Z" fill="#A592D5" stroke="#4A25AA" stroke-width="0.75" stroke-linecap="round" stroke-linejoin="round"/>
<path d="M183.94 97.82C182.35 97.82 181.05 96.52 181.05 94.92C181.05 93.32 182.34 92.02 183.94 92.02C185.54 92.02 186.82 93.32 186.82 94.92C186.82 96.52 185.53 97.82 183.94 97.82Z" fill="white" stroke="#4A25AA" stroke-width="0.75" stroke-linecap="round" stroke-linejoin="round"/>
<path d="M197.02 97.82C195.43 97.82 194.13 96.52 194.13 94.92C194.13 93.32 195.42 92.02 197.02 92.02C198.62 92.02 199.9 93.32 199.9 94.92C199.9 96.52 198.61 97.82 197.02 97.82Z" fill="white" stroke="#4A25AA" stroke-width="0.75" stroke-linecap="round" stroke-linejoin="round"/>
<path d="M210.11 97.82C208.52 97.82 207.23 96.52 207.23 94.92C207.23 93.32 208.52 92.02 210.11 92.02C211.7 92.02 213 93.32 213 94.92C213 96.52 211.71 97.82 210.11 97.82Z" fill="white" stroke="#4A25AA" stroke-width="0.75" stroke-linecap="round" stroke-linejoin="round"/>
<path d="M19 49.02H22.17C22.35 50.41 23.38 50.95 24.69 50.95C25.69 50.95 26.57 50.56 26.57 49.64C26.57 48.66 25.69 48.25 24.3 47.89L23.09 47.58C21.37 47.17 19.41 46.47 19.41 43.95C19.41 41.43 21.68 40.01 24.22 40.01C27.69 40.01 29.53 41.89 29.7 44.64H26.53C26.42 43.05 25.45 42.45 24.24 42.45C23.24 42.45 22.54 42.94 22.54 43.76C22.54 44.66 23.42 44.89 24.65 45.23L25.86 45.54C28.1 46.11 29.7 47.14 29.7 49.56C29.7 52.21 27.43 53.4 24.71 53.4C21.08 53.4 19.18 51.67 19 49.02Z" fill="#4A25AA"/>
<path d="M60.35 40.68H57.07V53.01H60.35V40.68Z" fill="#4A25AA"/>
<path d="M75.11 50.69V53.03H73.73C72.52 53.03 71.58 52.8 71.14 51.62C70.27 52.72 68.94 53.41 66.91 53.41C64.3 53.41 62.37 52.18 62.37 49.64C62.37 47.1 64.24 45.97 66.6 45.74L70.6 45.33V44.79C70.6 43.38 69.7 42.69 68.45 42.69C67.07 42.69 66.23 43.48 66.02 44.63H62.74C63 41.96 65.17 40.07 68.45 40.07C71.45 40.07 73.88 41.58 73.88 45.02V49.71C73.88 50.38 74.19 50.68 74.8 50.68H75.11V50.69ZM70.6 47.59L67.73 47.9C66.55 48.03 65.65 48.52 65.65 49.52C65.65 50.52 66.44 50.9 67.47 50.9C68.85 50.9 70.6 50.23 70.6 48.21V47.59Z" fill="#4A25AA"/>
<path d="M38.11 53.39C41.8158 53.39 44.82 50.3858 44.82 46.68C44.82 42.9742 41.8158 39.97 38.11 39.97C34.4042 39.97 31.4 42.9742 31.4 46.68C31.4 50.3858 34.4042 53.39 38.11 53.39Z" fill="#4A25AA"/>
<path d="M55.49 35.65C54.87 35.43 53.71 35 52.36 35C49.87 35 48.12 36.32 48.12 38.96V40.68H45.45V43.24H48.12V53.02H51.37V43.24H54.67V40.68H51.37V39.14C51.37 38.07 52 37.59 52.94 37.59C53.72 37.59 54.53 37.89 54.93 38.01L55.48 35.64L55.49 35.65Z" fill="#4A25AA"/>
<path d="M57.48 39.04H59.76C59.93 39.04 60.09 38.95 60.18 38.81L62.41 35.2H59.49C59.29 35.2 59.11 35.32 59.04 35.5L57.49 39.05L57.48 39.04Z" fill="#4A25AA"/>
</svg>
