<svg width="230" height="128" viewBox="0 0 230 128" fill="none" xmlns="http://www.w3.org/2000/svg">
<path d="M230 0H0V128H230V0Z" fill="white"/>
<path d="M115 117.08C144.321 117.08 168.09 93.3153 168.09 64C168.09 34.6847 144.321 10.92 115 10.92C85.6792 10.92 61.91 34.6847 61.91 64C61.91 93.3153 85.6792 117.08 115 117.08Z" fill="#F2F4F8"/>
<path d="M160.03 14.88V113.14C160.03 115.5 158.1 117.43 155.72 117.43H74.29C71.91 117.43 69.98 115.5 69.98 113.14V14.88C69.98 12.5 71.91 10.57 74.29 10.57H155.71C158.09 10.57 160.02 12.5 160.02 14.88H160.03Z" fill="white"/>
<path d="M160.03 105.56V113.14C160.03 115.5 158.1 117.43 155.72 117.43H74.29C71.91 117.43 69.98 115.5 69.98 113.14V105.56H160.03Z" fill="#A592D5"/>
<path d="M74.29 10.57H155.72C158.09 10.57 160.02 12.5 160.02 14.87V113.13C160.02 115.5 158.09 117.43 155.72 117.43H74.29C71.92 117.43 69.99 115.5 69.99 113.13V14.87C69.99 12.5 71.92 10.57 74.29 10.57Z" stroke="#4A25AA" stroke-width="0.75" stroke-linecap="round" stroke-linejoin="round"/>
<path d="M78.87 22.41C80.1403 22.41 81.17 21.3803 81.17 20.11C81.17 18.8397 80.1403 17.81 78.87 17.81C77.5998 17.81 76.57 18.8397 76.57 20.11C76.57 21.3803 77.5998 22.41 78.87 22.41Z" stroke="#4A25AA" stroke-width="0.75" stroke-linecap="round" stroke-linejoin="round"/>
<path d="M115 91.2C131.883 91.2 145.57 77.5089 145.57 60.62C145.57 43.7311 131.883 30.04 115 30.04C98.1167 30.04 84.43 43.7311 84.43 60.62C84.43 77.5089 98.1167 91.2 115 91.2Z" stroke="#4A26A7" stroke-width="0.75" stroke-linecap="round" stroke-linejoin="round"/>
<path d="M69.99 105.56H160.01" stroke="#4A25AA" stroke-width="0.75" stroke-linecap="round" stroke-linejoin="round"/>
<path d="M153.47 96.78H139.92" stroke="#4A25AA" stroke-width="0.75" stroke-linecap="round" stroke-linejoin="round"/>
<path d="M83.17 117.43C80.79 117.43 78.87 115.5 78.87 113.13V105.56" stroke="#4A25AA" stroke-width="0.75" stroke-linecap="round" stroke-linejoin="round"/>
<path d="M92.98 117.43C90.6 117.43 88.68 115.5 88.68 113.13V105.56" stroke="#4A25AA" stroke-width="0.75" stroke-linecap="round" stroke-linejoin="round"/>
<path d="M123.44 64.77C123.13 66.87 123.39 68.71 124.48 71.24C121.41 74.85 113.26 74.04 104.8 70.2L104.76 70.17C107.17 66.49 106.13 60.48 104.68 56.31L102.78 46.04C103.87 45.06 104.8 42.75 105.42 40.74C107.1 41.47 109.56 39.75 110.19 36.54C110.94 32.75 112.32 30.31 114.6 29.11C116.34 28.2 119.76 27.46 123.15 29.97C125.41 31.64 127.55 34.88 127.86 38.82C128.4 45.83 130.08 48.26 131.38 53.35C132.24 56.71 131.52 62.47 125.9 64.21C119.11 66.32 113.43 62.02 113.43 62.02" fill="white"/>
<path d="M128.6 43.78C128.6 43.66 128.58 43.55 128.54 43.44C128.4 43.12 127.95 43.16 127.69 43.29C127.34 43.45 127.15 43.81 127.04 44.17C126.75 45.11 127.08 46.39 127.65 47.24C127.89 47.59 128.27 47.84 128.66 47.98C128.81 48.03 129.1 48.14 129.25 48.08C129.42 48.02 129.46 47.75 129.43 47.59C129.39 47.4 129.27 47.23 129.18 47.06C128.9 46.58 128.77 46.02 128.7 45.47C128.63 44.92 128.63 44.36 128.6 43.78Z" fill="#FBDDD8"/>
<path d="M124.47 71.24C121.4 74.85 113.25 74.04 104.79 70.2" stroke="#4A25AA" stroke-width="0.75" stroke-linecap="round" stroke-linejoin="round"/>
<path d="M125.78 79.69C122.24 82.15 115.7 82.06 108.95 79.68" stroke="#4A25AA" stroke-width="0.75" stroke-linecap="round" stroke-linejoin="round"/>
<path d="M123.44 64.77C123.13 66.87 123.39 68.71 124.48 71.24C121.41 74.85 113.26 74.04 104.8 70.2L104.76 70.17C107.17 66.49 106.13 60.48 104.68 56.31L102.78 46.04C103.87 45.06 104.8 42.75 105.42 40.74C107.1 41.47 109.56 39.75 110.19 36.54C110.94 32.75 112.32 30.31 114.6 29.11C116.34 28.2 119.76 27.46 123.15 29.97C125.41 31.64 127.55 34.88 127.86 38.82C128.4 45.83 130.08 48.26 131.38 53.35C132.24 56.71 131.52 62.47 125.9 64.21C119.11 66.32 113.43 62.02 113.43 62.02" stroke="#4A25AA" stroke-width="0.75" stroke-linecap="round" stroke-linejoin="round"/>
<path d="M128.51 75.73C126.857 74.17 125.517 72.6767 124.49 71.25H124.47C121.41 74.86 113.26 74.05 104.78 70.19L104.76 70.17C104.28 70.88 103.7 71.57 102.99 72.22C102.99 72.22 99.54 77.23 96.19 84.7C100.9 88.4 106.69 90.74 113.01 91.13C113.68 91.18 114.34 91.2 115.01 91.2C118.75 91.2 122.34 90.51 125.67 89.27C127.81 88.49 129.85 87.45 131.74 86.21C131.33 82.05 130.36 78.33 128.52 75.73H128.51Z" fill="#EDE9F7" stroke="#4A25AA" stroke-width="0.75" stroke-linecap="round" stroke-linejoin="round"/>
<path d="M113 91.12C106.68 90.73 100.89 88.39 96.18 84.69C94.18 83.13 92.39 81.34 90.85 79.36C94.89 76.72 98.96 75.55 102.61 72.54C102.72 72.43 102.86 72.33 102.98 72.22L103 72.27C107.25 74.91 110.97 82.56 112.99 91.13L113 91.12Z" fill="white" stroke="#4A25AA" stroke-width="0.75" stroke-linecap="round" stroke-linejoin="round"/>
<path d="M136.89 81.91C135.35 83.52 133.6 84.97 131.72 86.21C129.84 87.45 127.79 88.48 125.65 89.27C125.24 83.46 124.91 77.16 125.86 73.09C129.08 74.93 134.15 79.06 136.75 81.75C136.8 81.8 136.84 81.84 136.89 81.91Z" fill="white" stroke="#4A25AA" stroke-width="0.75" stroke-linecap="round" stroke-linejoin="round"/>
<path d="M103.4 72.51V72.53C105.26 75.88 103.84 81.67 105.51 86.55C105.99 87.95 107.03 89.26 108.13 90.41" stroke="#4A25AA" stroke-width="0.75" stroke-linecap="round" stroke-linejoin="round"/>
<path d="M96.57 38.56C101.259 38.56 105.06 34.7589 105.06 30.07C105.06 25.3811 101.259 21.58 96.57 21.58C91.8811 21.58 88.08 25.3811 88.08 30.07C88.08 34.7589 91.8811 38.56 96.57 38.56Z" fill="#C9BEE6" stroke="#4A25AA" stroke-width="0.75" stroke-linecap="round" stroke-linejoin="round"/>
<path d="M110.57 44.31C111.78 43.78 113.28 44.24 114.14 44.98C115.11 45.81 115.37 47.51 114.49 48.47C113.69 49.35 110.57 49.95 109.53 48.34C108.6 46.89 109.12 44.94 110.57 44.3V44.31Z" fill="#FBDDD8"/>
<path d="M114.44 34.48C111.69 34.89 109.9 35.85 108.15 38.16" stroke="#4A25AA" stroke-width="0.75" stroke-linecap="round" stroke-linejoin="round"/>
<path d="M122.58 33.79C122.58 33.79 124.15 33.27 126.68 34.65" stroke="#4A25AA" stroke-width="0.75" stroke-linecap="round" stroke-linejoin="round"/>
<path d="M115.92 38.89C115.92 38.89 113.67 38.42 111.93 39.98" stroke="#4A25AA" stroke-width="0.75" stroke-linecap="round" stroke-linejoin="round"/>
<path d="M124.61 38.57C124.61 38.57 126.11 38.06 127.54 38.96" stroke="#4A25AA" stroke-width="0.75" stroke-linecap="round" stroke-linejoin="round"/>
<path d="M113.6 39C114.31 38.76 114.88 39.01 115.08 39.68C115.31 40.46 114.9 41 114.47 41.23C113.98 41.49 113.29 41.31 113 40.84C112.59 40.18 112.9 39.24 113.61 39H113.6Z" fill="#4A25AA"/>
<path d="M125.31 38.45C125.96 38.13 126.55 38.29 126.84 38.91C127.17 39.63 126.84 40.21 126.46 40.49C126.02 40.81 125.33 40.73 124.98 40.31C124.49 39.73 124.66 38.77 125.32 38.45H125.31Z" fill="#4A25AA"/>
<path d="M103.38 27.97C99.68 26.48 94.66 30.11 97.02 35.66L103.38 27.97Z" fill="white"/>
<path d="M103.38 27.97C99.68 26.48 94.66 30.11 97.02 35.66" stroke="#4A25AA" stroke-width="0.75" stroke-linecap="round" stroke-linejoin="round"/>
<path d="M102.12 48.35L101.42 48.75" stroke="#4A25AA" stroke-width="0.75" stroke-linecap="round" stroke-linejoin="round"/>
<path d="M117.32 49.97C119.29 51.17 122.66 51.33 124.75 50.59" stroke="#4A25AA" stroke-width="0.75" stroke-linecap="round" stroke-linejoin="round"/>
<path d="M123.55 45.54C124.92 45.04 125.33 43.75 124.53 42.7C123.77 41.71 122.16 42.18 121.68 41.51C121 40.57 120.49 38.58 120.35 36.05" stroke="#4A25AA" stroke-width="0.75" stroke-linecap="round" stroke-linejoin="round"/>
<path d="M99.13 46.38C99.33 46.54 99.56 46.66 99.81 46.74C102.5 47.54 104.37 44.59 105.47 41.06C107.15 41.79 109.55 39.74 110.18 36.53C110.93 32.74 112.31 30.3 114.59 29.1C116.33 28.19 119.75 27.45 123.14 29.96C123.74 30.41 124.31 30.97 124.82 31.62C122.15 27.63 117.66 24.5 109.41 25.54C101.5 26.54 97.7 31.74 96.04 37.97C93.95 45.84 98.74 57.76 104.62 57.03C105.27 57.19 104.01 53.94 103.77 52.41" fill="#C9BEE6"/>
<path d="M99.13 46.38C99.33 46.54 99.56 46.66 99.81 46.74C102.5 47.54 104.37 44.59 105.47 41.06C107.15 41.79 109.55 39.74 110.18 36.53C110.93 32.74 112.31 30.3 114.59 29.1C116.33 28.19 119.75 27.45 123.14 29.96C123.74 30.41 124.31 30.97 124.82 31.62C122.15 27.63 117.66 24.5 109.41 25.54C101.5 26.54 97.7 31.74 96.04 37.97C93.95 45.84 98.74 57.76 104.62 57.03C105.27 57.19 104.01 53.94 103.77 52.41" stroke="#4A25AA" stroke-width="0.75" stroke-linecap="round" stroke-linejoin="round"/>
<path d="M102.18 32.33C100.9 33.64 99.92 35.09 99.29 36.56C98.43 38.54 97.88 41.08 97.96 43.15" fill="#C9BEE6"/>
<path d="M102.18 32.33C100.9 33.64 99.92 35.09 99.29 36.56C98.43 38.54 97.88 41.08 97.96 43.15" stroke="#4A25AA" stroke-width="0.75" stroke-linecap="round" stroke-linejoin="round"/>
<path d="M105.22 51.91C100.62 53.98 97.68 48.89 99.13 46.38C99.13 46.38 99.91 47.05 101.08 46.85C102.25 46.65 102.99 45.79 102.99 45.79C104.07 46.24 104.88 48.83 106.04 49.11" fill="white"/>
<path d="M105.22 51.91C100.62 53.98 97.68 48.89 99.13 46.38C99.13 46.38 99.91 47.05 101.08 46.85C102.25 46.65 102.99 45.79 102.99 45.79C104.07 46.24 104.88 48.83 106.04 49.11" stroke="#4A25AA" stroke-width="0.75" stroke-linecap="round" stroke-linejoin="round"/>
<path d="M103.33 49.06C103.33 49.06 101.91 48.01 101.07 48.01" stroke="#4A25AA" stroke-width="0.75" stroke-linecap="round" stroke-linejoin="round"/>
<path d="M131.89 86.09C131.5 81.68 127.94 76.42 125.87 73.09" stroke="#4A25AA" stroke-width="0.75" stroke-linecap="round" stroke-linejoin="round"/>
<path d="M119.31 53.12C119.63 52.56 122.14 52.49 122.51 53.18C123.05 54.18 121.72 54.98 120.79 54.77C119.65 54.52 118.95 53.74 119.31 53.11V53.12Z" fill="#FBDDD8"/>
</svg>
